<svg width="16" height="16" viewBox="0 0 16 16" fill="none" xmlns="http://www.w3.org/2000/svg">
<path d="M12.4689 15.1879H1.3155C1.03134 15.1879 0.800781 14.9575 0.800781 14.673V3.5196C0.800781 3.23528 1.03134 3.00488 1.3155 3.00488H6.89214C7.17646 3.00488 7.40686 3.23544 7.40686 3.5196C7.40686 3.80376 7.1763 4.03432 6.89214 4.03432H1.83038V14.1583H11.9542V9.09624C11.9542 8.81192 12.1848 8.58152 12.4689 8.58152C12.7533 8.58152 12.9837 8.81208 12.9837 9.09624V14.673C12.9838 14.9575 12.7533 15.1879 12.4689 15.1879Z" fill="#D55555"/>
<path d="M15.0479 2.56558L13.4436 0.962856C13.2428 0.762056 12.9169 0.762056 12.7161 0.962856L11.2662 2.41454L5.66186 8.0187C5.61546 8.0651 5.57786 8.11998 5.5521 8.17998L4.35274 10.9821C4.26858 11.176 4.31322 11.4008 4.4609 11.5483C4.56042 11.6478 4.69082 11.6993 4.82474 11.6993C4.89338 11.6993 4.96202 11.6856 5.0289 11.6582L7.83098 10.4589C7.89098 10.4331 7.94602 10.3953 7.99226 10.3491L13.5964 4.74494L15.0481 3.29502C15.2487 3.0923 15.2487 2.76638 15.0479 2.56558ZM5.80426 10.2065L6.27274 9.11518L6.89562 9.73806L5.80426 10.2065ZM7.5065 9.3795L6.63146 8.50446L11.6796 3.45614L12.5548 4.33118L7.5065 9.3795ZM13.0403 3.84558L12.1652 2.97054L13.0798 2.05598L13.9548 2.92942L13.0403 3.84558Z" fill="#D55555"/>
</svg>
