<svg width="18" height="17" viewBox="0 0 18 17" fill="none" xmlns="http://www.w3.org/2000/svg">
<path fill-rule="evenodd" clip-rule="evenodd" d="M6.93124 1.23656C7.83922 -0.412186 10.162 -0.412186 11.0688 1.23656L17.6916 13.2624C18.5817 14.8796 17.4387 16.875 15.624 16.875H2.37718C0.561207 16.875 -0.581738 14.8796 0.308418 13.2624L6.93124 1.23656ZM10.1869 13.2394C10.1869 13.5609 10.0618 13.8692 9.83925 14.0966C9.61667 14.3239 9.31477 14.4517 9 14.4517C8.68522 14.4517 8.38333 14.3239 8.16075 14.0966C7.93817 13.8692 7.81312 13.5609 7.81312 13.2394C7.81312 12.9179 7.93817 12.6095 8.16075 12.3822C8.38333 12.1548 8.68522 12.0271 9 12.0271C9.31477 12.0271 9.61667 12.1548 9.83925 12.3822C10.0618 12.6095 10.1869 12.9179 10.1869 13.2394ZM9 3.54112C8.68522 3.54112 8.38333 3.66881 8.16075 3.89617C7.93817 4.12353 7.81312 4.43184 7.81312 4.75336V8.39021C7.81312 8.71173 7.93817 9.0201 8.16075 9.24746C8.38333 9.47482 8.68522 9.60251 9 9.60251C9.31477 9.60251 9.61667 9.47482 9.83925 9.24746C10.0618 9.0201 10.1869 8.71173 10.1869 8.39021V4.75336C10.1869 4.43184 10.0618 4.12353 9.83925 3.89617C9.61667 3.66881 9.31477 3.54112 9 3.54112Z" fill="#D55555"/>
</svg>
