<svg width="28" height="28" viewBox="0 0 28 28" fill="none" xmlns="http://www.w3.org/2000/svg">
<path fill-rule="evenodd" clip-rule="evenodd" d="M14 0.5C21.4558 0.5 27.5 6.54416 27.5 14C27.5 21.4558 21.4558 27.5 14 27.5C6.54416 27.5 0.5 21.4558 0.5 14C0.5 6.54416 6.54416 0.5 14 0.5ZM14 12.875C13.068 12.875 12.3125 13.6305 12.3125 14.5625V19.625C12.3125 20.557 13.068 21.3125 14 21.3125C14.932 21.3125 15.6875 20.557 15.6875 19.625V14.5625C15.6875 13.6305 14.932 12.875 14 12.875ZM14 6.6875C12.7574 6.6875 11.75 7.69486 11.75 8.9375C11.75 10.1801 12.7574 11.1875 14 11.1875C15.2426 11.1875 16.25 10.1801 16.25 8.9375C16.25 7.69486 15.2426 6.6875 14 6.6875Z" fill="#46A1CB"/>
</svg>
