<svg width="60" height="60" viewBox="0 0 60 60" fill="none" xmlns="http://www.w3.org/2000/svg">
<rect width="60" height="60" rx="5" fill="#FFEC3A" fill-opacity="0.2"/>
<path d="M27 31H33H27ZM30 28V34V28ZM35 39H25C24.4696 39 23.9609 38.7893 23.5858 38.4142C23.2107 38.0391 23 37.5304 23 37V23C23 22.4696 23.2107 21.9609 23.5858 21.5858C23.9609 21.2107 24.4696 21 25 21H30.586C30.8512 21.0001 31.1055 21.1055 31.293 21.293L36.707 26.707C36.8946 26.8945 36.9999 27.1488 37 27.414V37C37 37.5304 36.7893 38.0391 36.4142 38.4142C36.0391 38.7893 35.5304 39 35 39Z" stroke="#DBC72A" stroke-width="2" stroke-linecap="round" stroke-linejoin="round"/>
</svg>
