<svg width="30" height="30" viewBox="0 0 30 30" fill="none" xmlns="http://www.w3.org/2000/svg">
<path fill-rule="evenodd" clip-rule="evenodd" d="M23.3708 1.13767C24.887 -0.378936 27.3456 -0.379271 28.8623 1.13695C30.2433 2.51762 30.3671 4.67974 29.2334 6.20051L29.6919 7.91326C29.96 8.9144 29.6738 9.9827 28.9409 10.7156C28.208 11.4485 27.1399 11.7347 26.1387 11.4665L24.4713 11.0192L24.257 11.2335L24.7042 12.9006L24.7046 12.9019C24.9715 13.9027 24.6849 14.97 23.9525 15.7024C23.2201 16.4348 22.1529 16.7214 21.1521 16.4545L21.1508 16.4541L19.4837 16.0069L17.1145 18.3762C18.3859 22.1054 17.0164 26.266 13.7061 28.4979C10.2171 30.8502 5.55051 30.4004 2.57508 27.4249C-0.400343 24.4494 -0.850177 19.7827 1.50212 16.2936C3.73396 12.9832 7.89447 11.6137 11.6236 12.8851L23.3708 1.13767ZM27.5366 2.46302C26.7523 1.67892 25.4808 1.67911 24.6968 2.46345L12.5202 14.6403C12.2501 14.9104 11.843 14.9896 11.4913 14.8405C8.44352 13.5482 4.9074 14.5969 3.05681 17.3418C1.20621 20.0867 1.5601 23.7581 3.90093 26.099C6.24176 28.4399 9.91307 28.7938 12.6579 26.9431C15.4028 25.0925 16.4514 21.5563 15.1592 18.5084C15.0101 18.1567 15.0893 17.7497 15.3594 17.4795L18.5407 14.2982C18.7776 14.0613 19.123 13.9688 19.4466 14.0556L21.6353 14.6428C21.9893 14.7369 22.3675 14.6356 22.6266 14.3765C22.8857 14.1175 22.9872 13.7401 22.8931 13.3861L22.3057 11.1964C22.2189 10.8728 22.3114 10.5274 22.5483 10.2905L23.5283 9.31048C23.7652 9.07356 24.1106 8.98109 24.4342 9.0679L26.6239 9.65533C26.9779 9.75005 27.3559 9.64886 27.6151 9.38969C27.8743 9.13044 27.9756 8.75259 27.8807 8.39844L27.2944 6.2082C27.2078 5.88477 27.3003 5.53972 27.537 5.30293C28.3211 4.51859 28.3209 3.24712 27.5366 2.46302ZM4.5009 22.5976C4.5009 20.9952 5.79986 19.6962 7.4022 19.6962C9.00454 19.6962 10.3035 20.9952 10.3035 22.5976C10.3035 24.2 9.00454 25.499 7.4022 25.499C5.79985 25.499 4.5009 24.2 4.5009 22.5976ZM7.4022 21.5713C6.8354 21.5713 6.37593 22.0308 6.37593 22.5976C6.37593 23.1644 6.83541 23.6239 7.4022 23.6239C7.96899 23.6239 8.42846 23.1644 8.42846 22.5976C8.42846 22.0308 7.96899 21.5713 7.4022 21.5713Z" fill="#555770"/>
</svg>
