<svg width="61" height="60" viewBox="0 0 61 60" fill="none" xmlns="http://www.w3.org/2000/svg">
<rect width="60.2905" height="60" rx="5" fill="#AF6A37" fill-opacity="0.3"/>
<path d="M36 26H35V24C35 21.24 32.76 19 30 19C27.24 19 25 21.24 25 24V26H24C22.9 26 22 26.9 22 28V38C22 39.1 22.9 40 24 40H36C37.1 40 38 39.1 38 38V28C38 26.9 37.1 26 36 26ZM30 35C28.9 35 28 34.1 28 33C28 31.9 28.9 31 30 31C31.1 31 32 31.9 32 33C32 34.1 31.1 35 30 35ZM33.1 26H26.9V24C26.9 22.29 28.29 20.9 30 20.9C31.71 20.9 33.1 22.29 33.1 24V26Z" fill="#93132C"/>
</svg>
