<svg width="30" height="30" viewBox="0 0 30 30" fill="none" xmlns="http://www.w3.org/2000/svg">
<path d="M22.5 10H21.25V7.5C21.25 4.05 18.45 1.25 15 1.25C11.55 1.25 8.75 4.05 8.75 7.5V10H7.5C6.125 10 5 11.125 5 12.5V25C5 26.375 6.125 27.5 7.5 27.5H22.5C23.875 27.5 25 26.375 25 25V12.5C25 11.125 23.875 10 22.5 10ZM15 21.25C13.625 21.25 12.5 20.125 12.5 18.75C12.5 17.375 13.625 16.25 15 16.25C16.375 16.25 17.5 17.375 17.5 18.75C17.5 20.125 16.375 21.25 15 21.25ZM18.875 10H11.125V7.5C11.125 5.3625 12.8625 3.625 15 3.625C17.1375 3.625 18.875 5.3625 18.875 7.5V10Z" fill="#8E90A6"/>
</svg>
