<svg width="61" height="60" viewBox="0 0 61 60" fill="none" xmlns="http://www.w3.org/2000/svg">
<rect width="60.2905" height="60" rx="5" fill="#1AAA52" fill-opacity="0.3"/>
<g clip-path="url(#clip0)">
<path d="M32.0413 34.9282C31.9292 34.8055 31.7875 34.7138 31.641 34.6373C31.3221 34.471 30.9733 34.3701 30.627 34.2791V36.9627C31.1891 36.8991 31.8344 36.6951 32.1296 36.1703C32.2705 35.9197 32.2985 35.6117 32.2411 35.3326C32.21 35.1814 32.1457 35.0426 32.0413 34.9282Z" fill="black"/>
<path d="M32.127 36.1757C32.1281 36.1738 32.1288 36.1725 32.13 36.1704C32.129 36.1722 32.128 36.1739 32.127 36.1757Z" fill="black"/>
<path d="M27.9899 30.6383C27.8932 30.7794 27.8326 30.9397 27.8159 31.1101C27.7991 31.2809 27.8085 31.4709 27.8734 31.6316C27.9352 31.7848 28.0646 31.8979 28.1981 31.9889C28.348 32.0909 28.5128 32.1705 28.6807 32.238C28.8215 32.2947 28.9799 32.3489 29.1507 32.4012V29.9729C28.7193 30.065 28.248 30.2615 27.9899 30.6383Z" fill="black"/>
<path d="M32.1404 36.1506C32.1367 36.1571 32.1328 36.1639 32.1289 36.1711C32.1334 36.1627 32.137 36.1566 32.1404 36.1506Z" fill="black"/>
<path d="M32.1543 36.1265C32.156 36.1233 32.1563 36.1231 32.1543 36.1265V36.1265Z" fill="black"/>
<path d="M31.5721 21.5275C33.8542 19.6104 35.3791 15.2914 34.4407 15.1025C33.1938 14.8514 30.486 15.9524 29.1772 16.1464C27.321 16.3705 25.2992 14.1335 24.1644 15.3804C23.2417 16.3942 24.8259 20.0812 27.3045 21.6875C19.9098 25.3218 9.51623 43.5665 27.6484 44.8903C52.7375 46.7221 40.1745 25.0691 31.5721 21.5275ZM33.7267 35.9161C33.6496 36.6274 33.2726 37.2706 32.7092 37.7073C32.1142 38.1684 31.368 38.3829 30.6266 38.4429V39.2288C30.6266 39.4391 30.5347 39.6425 30.3773 39.7817C30.1609 39.9732 29.843 40.0204 29.5804 39.8994C29.3211 39.7801 29.1508 39.5142 29.1508 39.2288V38.3699C29.0236 38.3457 28.8974 38.317 28.7727 38.2828C28.0798 38.0924 27.437 37.7213 26.9675 37.1722C26.7336 36.8985 26.543 36.588 26.4111 36.2528C26.3767 36.1652 26.346 36.0759 26.3191 35.9857C26.2947 35.9041 26.2696 35.821 26.2609 35.7359C26.2463 35.5931 26.2746 35.4474 26.3412 35.3202C26.478 35.0585 26.7663 34.9005 27.0606 34.9267C27.3503 34.9524 27.6043 35.1535 27.6955 35.4296C27.7236 35.5147 27.7426 35.6018 27.7742 35.686C27.8054 35.7696 27.8432 35.8508 27.8876 35.9282C27.9753 36.0805 28.0851 36.221 28.2116 36.3429C28.4724 36.5942 28.8045 36.7574 29.1508 36.8546V33.9348C28.4737 33.7595 27.7749 33.5331 27.2158 33.0984C26.9441 32.887 26.7135 32.6244 26.5625 32.3136C26.4032 31.9856 26.3372 31.6201 26.3345 31.2572C26.3318 30.8886 26.4018 30.5233 26.5555 30.1875C26.6996 29.8731 26.9069 29.5908 27.1611 29.3568C27.7046 28.8565 28.4266 28.5774 29.1508 28.4749V28.4107V27.6591C29.1508 27.4489 29.2427 27.2454 29.4001 27.1062C29.6165 26.9149 29.9343 26.8676 30.197 26.9886C30.4562 27.1079 30.6266 27.3738 30.6266 27.6591V28.4107V28.4705C30.7231 28.4826 30.8193 28.4972 30.9151 28.5145C31.6262 28.6432 32.3217 28.9369 32.8418 29.4496C33.0882 29.6924 33.2898 29.9818 33.4317 30.2973C33.4713 30.3853 33.5059 30.4754 33.5359 30.5673C33.5639 30.6529 33.592 30.7411 33.6053 30.8304C33.6266 30.9731 33.6049 31.1205 33.5438 31.251C33.4187 31.5184 33.1382 31.6887 32.8431 31.676C32.5531 31.6634 32.2903 31.4746 32.1865 31.2035C32.1556 31.1229 32.1401 31.0375 32.1086 30.9571C32.0767 30.8757 32.0355 30.7981 31.988 30.7248C31.8957 30.5822 31.776 30.4599 31.6394 30.3592C31.3436 30.1407 30.9849 30.027 30.6264 29.9633V32.7575C31.0524 32.8595 31.4788 32.9708 31.887 33.1317C32.5039 33.375 33.0884 33.748 33.4252 34.3361C33.3729 34.2445 33.3221 34.1552 33.4269 34.3392C33.5298 34.5199 33.4807 34.4338 33.429 34.3432C33.6969 34.8153 33.785 35.3798 33.7267 35.9161Z" fill="#214C30"/>
<path d="M32.1188 36.1895C32.1144 36.1974 32.1105 36.2044 32.1074 36.2097C32.11 36.2051 32.114 36.1982 32.1188 36.1895Z" fill="black"/>
</g>
<defs>
<clipPath id="clip0">
<rect width="30" height="30" fill="white" transform="translate(15 15)"/>
</clipPath>
</defs>
</svg>
