<svg width="94" height="94" viewBox="0 0 94 94" fill="none" xmlns="http://www.w3.org/2000/svg">
<g filter="url(#filter0_d)">
<rect x="32" y="16" width="30" height="30" rx="15" fill="white"/>
</g>
<path d="M47.0007 39.3335C47.9173 39.3335 48.6673 38.5835 48.6673 37.6668H45.334C45.334 38.5835 46.0757 39.3335 47.0007 39.3335ZM52.0007 34.3335V30.1668C52.0007 27.6085 50.634 25.4668 48.2507 24.9002V24.3335C48.2507 23.6418 47.6923 23.0835 47.0007 23.0835C46.309 23.0835 45.7507 23.6418 45.7507 24.3335V24.9002C43.359 25.4668 42.0007 27.6002 42.0007 30.1668V34.3335L40.334 36.0002V36.8335H53.6673V36.0002L52.0007 34.3335Z" fill="#555770"/>
<defs>
<filter id="filter0_d" x="0" y="0" width="94" height="94" filterUnits="userSpaceOnUse" color-interpolation-filters="sRGB">
<feFlood flood-opacity="0" result="BackgroundImageFix"/>
<feColorMatrix in="SourceAlpha" type="matrix" values="0 0 0 0 0 0 0 0 0 0 0 0 0 0 0 0 0 0 127 0" result="hardAlpha"/>
<feOffset dy="16"/>
<feGaussianBlur stdDeviation="16"/>
<feColorMatrix type="matrix" values="0 0 0 0 0.866667 0 0 0 0 0.901961 0 0 0 0 0.929412 0 0 0 0.4 0"/>
<feBlend mode="normal" in2="BackgroundImageFix" result="effect1_dropShadow"/>
<feBlend mode="normal" in="SourceGraphic" in2="effect1_dropShadow" result="shape"/>
</filter>
</defs>
</svg>
