<svg width="60" height="60" viewBox="0 0 60 60" fill="none" xmlns="http://www.w3.org/2000/svg">
<rect width="60" height="60" rx="5" fill="#1AAA52" fill-opacity="0.3"/>
<path fill-rule="evenodd" clip-rule="evenodd" d="M23.9996 28.7999V26.3999C23.9996 24.8086 24.6318 23.2825 25.757 22.1573C26.8822 21.032 28.4083 20.3999 29.9996 20.3999C31.5909 20.3999 33.117 21.032 34.2423 22.1573C35.3675 23.2825 35.9996 24.8086 35.9996 26.3999V28.7999C36.6361 28.7999 37.2466 29.0528 37.6967 29.5028C38.1468 29.9529 38.3996 30.5634 38.3996 31.1999V37.1999C38.3996 37.8364 38.1468 38.4469 37.6967 38.897C37.2466 39.347 36.6361 39.5999 35.9996 39.5999H23.9996C23.3631 39.5999 22.7526 39.347 22.3026 38.897C21.8525 38.4469 21.5996 37.8364 21.5996 37.1999V31.1999C21.5996 30.5634 21.8525 29.9529 22.3026 29.5028C22.7526 29.0528 23.3631 28.7999 23.9996 28.7999ZM33.5996 26.3999V28.7999H26.3996V26.3999C26.3996 25.4451 26.7789 24.5294 27.454 23.8543C28.1292 23.1792 29.0448 22.7999 29.9996 22.7999C30.9544 22.7999 31.8701 23.1792 32.5452 23.8543C33.2203 24.5294 33.5996 25.4451 33.5996 26.3999Z" fill="#065F43"/>
</svg>
