<svg width="27" height="26" viewBox="0 0 27 26" fill="none" xmlns="http://www.w3.org/2000/svg">
<path fill-rule="evenodd" clip-rule="evenodd" d="M26.68 3.96899C26.5756 3.57665 26.3945 3.20889 26.1471 2.88695C25.8998 2.56501 25.5911 2.29527 25.2389 2.09331C25.1327 2.03455 22.1613 0.355095 22.1613 0.355095C22.1001 0.320186 22.0326 0.297695 21.9627 0.28891C21.8927 0.280125 21.8217 0.285218 21.7538 0.303898C21.6858 0.322578 21.6222 0.354478 21.5666 0.397772C21.511 0.441067 21.4645 0.494904 21.4297 0.556204L12.6012 15.8943C12.531 16.0179 12.5128 16.1643 12.5505 16.3013C12.5882 16.4383 12.6788 16.5547 12.8023 16.6249L15.4326 18.1363C15.5107 18.182 15.5993 18.2068 15.6897 18.2085C15.7858 18.2104 15.8807 18.1865 15.9644 18.1391C16.048 18.0918 16.1174 18.0228 16.1653 17.9395L24.1927 3.96552C24.4025 4.0948 24.5537 4.30072 24.6142 4.53961C24.6747 4.7785 24.6397 5.03156 24.5168 5.24512L20.4865 12.2607C20.3453 12.5072 20.3077 12.7995 20.3819 13.0737C20.4561 13.3478 20.6361 13.5813 20.8823 13.7228C21.1291 13.8619 21.4207 13.8986 21.6943 13.825C21.9679 13.7514 22.2017 13.5734 22.3454 13.3292L26.3757 6.31465C26.5788 5.96312 26.7102 5.57486 26.7625 5.17226C26.8147 4.76966 26.7867 4.3607 26.68 3.96899ZM10.3255 21.2876C10.1282 21.083 9.85766 20.9652 9.57346 20.96C9.28926 20.9548 9.01464 21.0627 8.80999 21.26L7.39895 22.6206L6.03836 21.2096C5.85282 21.017 5.60198 20.9006 5.3351 20.8835C5.06821 20.8663 4.80455 20.9496 4.59587 21.1168L1.33174 23.7378C1.22173 23.8259 1.13018 23.9349 1.06235 24.0585C0.994515 24.1821 0.951724 24.3178 0.936425 24.4579C0.921127 24.5981 0.933621 24.7399 0.973193 24.8752C1.01276 25.0105 1.07864 25.1367 1.16704 25.2465C1.3473 25.4647 1.60566 25.604 1.88708 25.6345C2.1685 25.6651 2.45073 25.5845 2.67363 25.4101L5.17612 23.4014L6.59767 24.88C6.795 25.0846 7.06551 25.2025 7.34971 25.2076C7.6339 25.2128 7.90852 25.1049 8.11317 24.9076L9.52422 23.547L10.3587 24.4124C10.4557 24.5166 10.5725 24.6004 10.7022 24.6589C10.8319 24.7175 10.972 24.7496 11.1143 24.7535C11.2566 24.7573 11.3982 24.7327 11.5309 24.6812C11.6636 24.6297 11.7848 24.5523 11.8872 24.4535C11.9897 24.3547 12.0714 24.2365 12.1277 24.1058C12.184 23.975 12.2137 23.8344 12.2151 23.6921C12.2164 23.5497 12.1894 23.4086 12.1356 23.2768C12.0818 23.145 12.0023 23.0252 11.9018 22.9245L10.3255 21.2876ZM12.3306 17.4504L14.9609 18.9618L14.9598 18.9618C15.042 19.0091 15.1102 19.0773 15.1574 19.1596C15.2046 19.2418 15.2291 19.3351 15.2285 19.4299C15.2278 19.5248 15.202 19.6177 15.1538 19.6993C15.1055 19.7809 15.0364 19.8482 14.9536 19.8944L12.3779 21.3303C12.297 21.3754 12.2059 21.3987 12.1133 21.3981C12.0207 21.3975 11.9299 21.3729 11.8497 21.3267C11.7694 21.2806 11.7025 21.2144 11.6554 21.1347C11.6084 21.055 11.5827 20.9645 11.581 20.8719L11.5275 17.9247C11.5258 17.8299 11.5493 17.7364 11.5955 17.6536C11.6418 17.5708 11.7092 17.5018 11.7908 17.4536C11.8725 17.4054 11.9655 17.3797 12.0603 17.3791C12.1551 17.3786 12.2484 17.4032 12.3306 17.4504Z" fill="#555770"/>
</svg>
