<svg width="150" height="150" viewBox="0 0 150 150" fill="none" xmlns="http://www.w3.org/2000/svg">
<g opacity="0.38">
<rect x="0.5" y="0.5" width="149" height="149" rx="74.5" fill="white" stroke="#6366F1"/>
</g>
<path d="M75.5 37C80.6054 37 85.5017 39.0281 89.1118 42.6382C92.7219 46.2483 94.75 51.1446 94.75 56.25C94.75 61.3554 92.7219 66.2517 89.1118 69.8618C85.5017 73.4719 80.6054 75.5 75.5 75.5C70.3946 75.5 65.4983 73.4719 61.8882 69.8618C58.2781 66.2517 56.25 61.3554 56.25 56.25C56.25 51.1446 58.2781 46.2483 61.8882 42.6382C65.4983 39.0281 70.3946 37 75.5 37ZM75.5 85.125C96.7713 85.125 114 93.7394 114 104.375V114H37V104.375C37 93.7394 54.2287 85.125 75.5 85.125Z" fill="#555770"/>
</svg>
