<svg width="36" height="36" viewBox="0 0 36 36" fill="none" xmlns="http://www.w3.org/2000/svg">
<path fill-rule="evenodd" clip-rule="evenodd" d="M13.8625 2.63799C15.6784 -0.879329 20.3239 -0.879329 22.1375 2.63799L35.3831 28.2931C37.1635 31.7431 34.8775 36 31.248 36H4.75436C1.12241 36 -1.16348 31.7431 0.616836 28.2931L13.8625 2.63799ZM20.3737 28.2439C20.3737 28.9298 20.1237 29.5877 19.6785 30.0727C19.2333 30.5576 18.6295 30.8302 18 30.8302C17.3704 30.8302 16.7667 30.5576 16.3215 30.0727C15.8763 29.5877 15.6262 28.9298 15.6262 28.2439C15.6262 27.5581 15.8763 26.9003 16.3215 26.4152C16.7667 25.9302 17.3704 25.6578 18 25.6578C18.6295 25.6578 19.2333 25.9302 19.6785 26.4152C20.1237 26.9003 20.3737 27.5581 20.3737 28.2439ZM18 7.55438C17.3704 7.55438 16.7667 7.82678 16.3215 8.31182C15.8763 8.79686 15.6262 9.45458 15.6262 10.1405V17.8991C15.6262 18.585 15.8763 19.2429 16.3215 19.7279C16.7667 20.2129 17.3704 20.4853 18 20.4853C18.6295 20.4853 19.2333 20.2129 19.6785 19.7279C20.1237 19.2429 20.3737 18.585 20.3737 17.8991V10.1405C20.3737 9.45458 20.1237 8.79686 19.6785 8.31182C19.2333 7.82678 18.6295 7.55438 18 7.55438Z" fill="#CB974E"/>
</svg>
