<svg width="121" height="30" viewBox="0 0 121 30" fill="none" xmlns="http://www.w3.org/2000/svg">
<g clip-path="url(#clip0_2571_2232)">
<path d="M23.2675 11.0077C22.8671 10.6091 22.3868 10.2941 21.8562 10.0822C21.3255 9.87017 20.7557 9.76565 20.1818 9.77503H9.18505V5.83577C9.17746 5.43878 9.25159 5.0443 9.40312 4.67538C9.55465 4.30647 9.78053 3.97051 10.0676 3.68716C10.3546 3.4038 10.6971 3.17872 11.0749 3.02507C11.4527 2.87143 11.8584 2.79229 12.2681 2.79229C12.6779 2.79229 13.0835 2.87143 13.4614 3.02507C13.8392 3.17872 14.1817 3.4038 14.4687 3.68716C14.7557 3.97051 14.9816 4.30647 15.1332 4.67538C15.2847 5.0443 15.3588 5.43878 15.3512 5.83577V7.94767H18.2907V5.83577C18.3012 5.06287 18.1533 4.29563 17.8554 3.57859C17.5575 2.86155 17.1155 2.20899 16.5552 1.6588C15.9949 1.10862 15.3275 0.671758 14.5915 0.373587C13.8556 0.0754169 13.0658 -0.078125 12.2681 -0.078125C11.4705 -0.078125 10.6807 0.0754169 9.94477 0.373587C9.20882 0.671758 8.54133 1.10862 7.98103 1.6588C7.42074 2.20899 6.97881 2.86155 6.6809 3.57859C6.38298 4.29563 6.23502 5.06287 6.24561 5.83577V12.6604H20.1818C20.3664 12.658 20.5497 12.691 20.7211 12.7577C20.8925 12.8243 21.0486 12.9232 21.1803 13.0487C21.3146 13.1694 21.4212 13.3163 21.493 13.4797C21.5647 13.643 21.6002 13.8192 21.5969 13.9968V25.7817C21.5949 26.1448 21.4452 26.4925 21.1802 26.7492C20.9153 27.006 20.5565 27.1511 20.1818 27.153H4.35452C3.97998 27.1506 3.62148 27.0053 3.35663 26.7487C3.09179 26.492 2.94189 26.1446 2.93939 25.7817V13.9968C2.93551 13.8185 2.97063 13.6416 3.04244 13.4774C3.11424 13.3133 3.2211 13.1658 3.35598 13.0446C3.48768 12.9191 3.64374 12.8202 3.81513 12.7535C3.98653 12.6869 4.16986 12.6538 4.35452 12.6563V9.77709C3.78061 9.76771 3.21079 9.87222 2.68012 10.0842C2.14945 10.2962 1.66916 10.6111 1.26879 11.0097C0.857515 11.3975 0.532493 11.8627 0.313732 12.3768C0.094971 12.8908 -0.0128998 13.4428 -0.00324026 13.9988V25.7817C-0.0134653 26.3377 0.0941472 26.8899 0.312941 27.404C0.531736 27.9182 0.857059 28.3834 1.26879 28.7708C1.66877 29.1698 2.149 29.4851 2.67976 29.6971C3.21052 29.9092 3.78053 30.0134 4.35452 30.0034H20.1818C20.7545 30.0057 21.322 29.8981 21.8516 29.6867C22.3812 29.4754 22.8624 29.1645 23.2673 28.772C23.6723 28.3795 23.993 27.9132 24.211 27.3999C24.429 26.8867 24.5399 26.3367 24.5374 25.7817V13.9968C24.5473 13.4409 24.4398 12.889 24.2214 12.375C24.003 11.8609 23.6784 11.3956 23.2675 11.0077Z" fill="url(#paint0_linear_2571_2232)"/>
<path d="M14.1614 24.3633L13.1438 22.0264C13.4268 21.8783 13.6637 21.6595 13.83 21.3927C13.9962 21.126 14.0858 20.8209 14.0893 20.5093C14.0779 20.0485 13.8809 19.6103 13.5405 19.2883C13.2001 18.9664 12.7433 18.7861 12.2677 18.7861C11.792 18.7861 11.3352 18.9664 10.9948 19.2883C10.6545 19.6103 10.4575 20.0485 10.446 20.5093C10.4496 20.8209 10.5391 21.126 10.7054 21.3927C10.8717 21.6595 11.1086 21.8783 11.3916 22.0264L10.375 24.3633H14.1614Z" fill="url(#paint1_linear_2571_2232)"/>
</g>
<path d="M41.2178 11.7077H44.1176C44.03 8.51599 41.2081 6.20003 37.16 6.20003C33.1606 6.20003 30.0954 8.48679 30.0954 11.9218C30.0954 14.6951 32.0805 16.3202 35.2819 17.1862L37.6368 17.8285C39.7679 18.3928 41.4124 19.0935 41.4124 20.8645C41.4124 22.8107 39.5538 24.0951 36.9946 24.0951C34.6786 24.0951 32.7519 23.0637 32.5768 20.8937H29.5602C29.7548 24.5038 32.5476 26.7322 37.014 26.7322C41.6946 26.7322 44.3901 24.2703 44.3901 20.8937C44.3901 17.303 41.1886 15.9115 38.6586 15.2887L36.7124 14.7827C35.1554 14.3837 33.0828 13.6539 33.0925 11.7466C33.0925 10.0535 34.6397 8.79818 37.0919 8.79818C39.3787 8.79818 41.0037 9.86858 41.2178 11.7077ZM52.0994 26.7322C54.571 26.7322 55.9625 25.4769 56.5172 24.3579H56.634V26.4014H59.4754V16.4759C59.4754 12.1261 56.0501 11.2601 53.6758 11.2601C50.9706 11.2601 48.4795 12.35 47.5064 15.0746L50.2408 15.6974C50.6689 14.6367 51.7588 13.615 53.7147 13.615C55.5928 13.615 56.5561 14.5978 56.5561 16.291V16.3591C56.5561 17.4198 55.4663 17.4003 52.7805 17.7117C49.9488 18.0425 47.049 18.7821 47.049 22.1782C47.049 25.1169 49.2579 26.7322 52.0994 26.7322ZM52.7319 24.3968C51.0874 24.3968 49.9002 23.6573 49.9002 22.2171C49.9002 20.6601 51.282 20.1055 52.9654 19.8817C53.9093 19.7552 56.1474 19.5022 56.5658 19.0837V21.0105C56.5658 22.7815 55.1549 24.3968 52.7319 24.3968ZM70.464 11.4547H67.2431V10.1119C67.2431 8.78845 67.788 8.06836 69.2087 8.06836C69.812 8.06836 70.2402 8.2046 70.5126 8.29218L71.1938 5.9373C70.7851 5.78161 69.9385 5.53833 68.7611 5.53833C66.3965 5.53833 64.3238 6.92012 64.3238 9.72262V11.4547H62.0176V13.7901H64.3238V26.4014H67.2431V13.7901H70.464V11.4547ZM73.466 26.4014H76.3755V11.4547H73.466V26.4014ZM74.9353 9.14849C75.9376 9.14849 76.7745 8.37002 76.7745 7.41639C76.7745 6.46277 75.9376 5.67457 74.9353 5.67457C73.9233 5.67457 73.0962 6.46277 73.0962 7.41639C73.0962 8.37002 73.9233 9.14849 74.9353 9.14849ZM86.7316 26.703C89.9915 26.703 92.2977 25.0974 92.9594 22.6647L90.2055 22.1684C89.6801 23.5794 88.4151 24.2995 86.7608 24.2995C84.2697 24.2995 82.596 22.6842 82.5181 19.8038H93.1443V18.7723C93.1443 13.3717 89.9136 11.2601 86.5273 11.2601C82.3624 11.2601 79.6183 14.4324 79.6183 19.0254C79.6183 23.667 82.3235 26.703 86.7316 26.703ZM82.5279 17.6241C82.6446 15.5028 84.1821 13.6636 86.5467 13.6636C88.8043 13.6636 90.2834 15.3373 90.2931 17.6241H82.5279ZM99.282 17.5268C99.282 15.1427 100.742 13.7804 102.766 13.7804C104.741 13.7804 105.938 15.0746 105.938 17.2446V26.4014H108.847V16.8943C108.847 13.1965 106.814 11.2601 103.758 11.2601C101.51 11.2601 100.041 12.3013 99.3501 13.8874H99.1653V11.4547H96.3725V26.4014H99.282V17.5268ZM119.727 11.4547H116.661V7.87375H113.752V11.4547H111.562V13.7901H113.752V22.6161C113.742 25.331 115.815 26.6446 118.111 26.596C119.036 26.5863 119.659 26.4111 119.999 26.2846L119.474 23.8811C119.279 23.92 118.919 24.0076 118.452 24.0076C117.508 24.0076 116.661 23.6962 116.661 22.0127V13.7901H119.727V11.4547Z" fill="url(#paint2_linear_2571_2232)"/>
<defs>
<linearGradient id="paint0_linear_2571_2232" x1="-8.42832" y1="6.12633" x2="29.7039" y2="5.89947" gradientUnits="userSpaceOnUse">
<stop offset="0.0885417" stop-color="#44BCF0"/>
<stop offset="0.567708" stop-color="#818CF8"/>
<stop offset="1" stop-color="#A099FF"/>
</linearGradient>
<linearGradient id="paint1_linear_2571_2232" x1="9.07525" y1="19.9364" x2="14.9585" y2="19.9073" gradientUnits="userSpaceOnUse">
<stop offset="0.0885417" stop-color="#44BCF0"/>
<stop offset="0.567708" stop-color="#818CF8"/>
<stop offset="1" stop-color="#A099FF"/>
</linearGradient>
<linearGradient id="paint2_linear_2571_2232" x1="-3.72425" y1="10.6173" x2="140.391" y2="5.84358" gradientUnits="userSpaceOnUse">
<stop offset="0.0885417" stop-color="#44BCF0"/>
<stop offset="0.567708" stop-color="#818CF8"/>
<stop offset="1" stop-color="#A099FF"/>
</linearGradient>
<clipPath id="clip0_2571_2232">
<rect width="24.5385" height="30" fill="white"/>
</clipPath>
</defs>
</svg>
