<svg width="121" height="30" viewBox="0 0 121 30" fill="none" xmlns="http://www.w3.org/2000/svg">
<g clip-path="url(#clip0)">
<path d="M23.2675 11.0077C22.8671 10.6091 22.3868 10.2941 21.8562 10.0822C21.3255 9.87017 20.7557 9.76565 20.1818 9.77503H9.18505V5.83577C9.17746 5.43878 9.25159 5.0443 9.40312 4.67538C9.55465 4.30647 9.78053 3.97051 10.0676 3.68716C10.3546 3.4038 10.6971 3.17872 11.0749 3.02507C11.4527 2.87143 11.8584 2.79229 12.2681 2.79229C12.6779 2.79229 13.0835 2.87143 13.4614 3.02507C13.8392 3.17872 14.1817 3.4038 14.4687 3.68716C14.7557 3.97051 14.9816 4.30647 15.1332 4.67538C15.2847 5.0443 15.3588 5.43878 15.3512 5.83577V7.94767H18.2907V5.83577C18.3012 5.06287 18.1533 4.29563 17.8554 3.57859C17.5575 2.86155 17.1155 2.20899 16.5552 1.6588C15.9949 1.10862 15.3275 0.671758 14.5915 0.373587C13.8556 0.0754169 13.0658 -0.078125 12.2681 -0.078125C11.4705 -0.078125 10.6807 0.0754169 9.94477 0.373587C9.20882 0.671758 8.54133 1.10862 7.98103 1.6588C7.42074 2.20899 6.97881 2.86155 6.6809 3.57859C6.38298 4.29563 6.23502 5.06287 6.24561 5.83577V12.6604H20.1818C20.3664 12.658 20.5497 12.691 20.7211 12.7577C20.8925 12.8243 21.0486 12.9232 21.1803 13.0487C21.3146 13.1694 21.4212 13.3163 21.493 13.4797C21.5647 13.643 21.6002 13.8192 21.5969 13.9968V25.7817C21.5949 26.1448 21.4452 26.4925 21.1802 26.7492C20.9153 27.006 20.5565 27.1511 20.1818 27.153H4.35452C3.97998 27.1506 3.62148 27.0053 3.35663 26.7487C3.09179 26.492 2.94189 26.1446 2.93939 25.7817V13.9968C2.93551 13.8185 2.97063 13.6416 3.04244 13.4774C3.11424 13.3133 3.2211 13.1658 3.35598 13.0446C3.48768 12.9191 3.64374 12.8202 3.81513 12.7535C3.98653 12.6869 4.16986 12.6538 4.35452 12.6563V9.77709C3.78061 9.76771 3.21079 9.87222 2.68012 10.0842C2.14945 10.2962 1.66916 10.6111 1.26879 11.0097C0.857515 11.3975 0.532493 11.8627 0.313732 12.3768C0.094971 12.8908 -0.0128998 13.4428 -0.00324026 13.9988V25.7817C-0.0134653 26.3377 0.0941472 26.8899 0.312941 27.404C0.531736 27.9182 0.857059 28.3834 1.26879 28.7708C1.66877 29.1698 2.149 29.4851 2.67976 29.6971C3.21052 29.9092 3.78053 30.0134 4.35452 30.0034H20.1818C20.7545 30.0057 21.322 29.8981 21.8516 29.6867C22.3812 29.4754 22.8624 29.1645 23.2673 28.772C23.6723 28.3795 23.993 27.9132 24.211 27.3999C24.429 26.8867 24.5399 26.3367 24.5374 25.7817V13.9968C24.5473 13.4409 24.4398 12.889 24.2214 12.375C24.003 11.8609 23.6784 11.3956 23.2675 11.0077Z" fill="#3861FB"/>
<path d="M14.1614 24.3638L13.1438 22.0269C13.4268 21.8788 13.6637 21.66 13.83 21.3932C13.9962 21.1265 14.0858 20.8214 14.0893 20.5098C14.0779 20.049 13.8809 19.6108 13.5405 19.2888C13.2001 18.9669 12.7433 18.7866 12.2677 18.7866C11.792 18.7866 11.3352 18.9669 10.9948 19.2888C10.6545 19.6108 10.4575 20.049 10.446 20.5098C10.4496 20.8214 10.5391 21.1265 10.7054 21.3932C10.8717 21.66 11.1086 21.8788 11.3916 22.0269L10.375 24.3638H14.1614Z" fill="#3861FB"/>
</g>
<path d="M41.2178 14.7072H44.1176C44.03 11.5155 41.2081 9.19955 37.16 9.19955C33.1606 9.19955 30.0954 11.4863 30.0954 14.9213C30.0954 17.6946 32.0805 19.3197 35.2819 20.1857L37.6368 20.828C39.7679 21.3924 41.4124 22.093 41.4124 23.864C41.4124 25.8102 39.5538 27.0947 36.9946 27.0947C34.6786 27.0947 32.7519 26.0632 32.5768 23.8932H29.5602C29.7548 27.5034 32.5476 29.7317 37.014 29.7317C41.6946 29.7317 44.3901 27.2698 44.3901 23.8932C44.3901 20.3025 41.1886 18.911 38.6586 18.2882L36.7124 17.7822C35.1554 17.3832 33.0828 16.6534 33.0925 14.7462C33.0925 13.053 34.6397 11.7977 37.0919 11.7977C39.3787 11.7977 41.0037 12.8681 41.2178 14.7072ZM52.0994 29.7317C54.571 29.7317 55.9625 28.4764 56.5172 27.3574H56.634V29.4009H59.4754V19.4754C59.4754 15.1257 56.0501 14.2596 53.6758 14.2596C50.9706 14.2596 48.4795 15.3495 47.5064 18.0741L50.2408 18.6969C50.6689 17.6362 51.7588 16.6145 53.7147 16.6145C55.5928 16.6145 56.5561 17.5973 56.5561 19.2905V19.3586C56.5561 20.4193 55.4663 20.3998 52.7805 20.7112C49.9488 21.042 47.049 21.7816 47.049 25.1777C47.049 28.1164 49.2579 29.7317 52.0994 29.7317ZM52.7319 27.3963C51.0874 27.3963 49.9002 26.6568 49.9002 25.2166C49.9002 23.6597 51.282 23.105 52.9654 22.8812C53.9093 22.7547 56.1474 22.5017 56.5658 22.0832V24.01C56.5658 25.781 55.1549 27.3963 52.7319 27.3963ZM70.464 14.4542H67.2431V13.1114C67.2431 11.788 67.788 11.0679 69.2087 11.0679C69.812 11.0679 70.2402 11.2041 70.5126 11.2917L71.1938 8.93681C70.7851 8.78112 69.9385 8.53784 68.7611 8.53784C66.3965 8.53784 64.3238 9.91963 64.3238 12.7221V14.4542H62.0176V16.7896H64.3238V29.4009H67.2431V16.7896H70.464V14.4542ZM73.466 29.4009H76.3755V14.4542H73.466V29.4009ZM74.9353 12.148C75.9376 12.148 76.7745 11.3695 76.7745 10.4159C76.7745 9.46228 75.9376 8.67408 74.9353 8.67408C73.9233 8.67408 73.0962 9.46228 73.0962 10.4159C73.0962 11.3695 73.9233 12.148 74.9353 12.148ZM86.7316 29.7025C89.9915 29.7025 92.2977 28.0969 92.9594 25.6642L90.2055 25.1679C89.6801 26.5789 88.4151 27.299 86.7608 27.299C84.2697 27.299 82.596 25.6837 82.5181 22.8033H93.1443V21.7719C93.1443 16.3712 89.9136 14.2596 86.5273 14.2596C82.3624 14.2596 79.6183 17.4319 79.6183 22.0249C79.6183 26.6665 82.3235 29.7025 86.7316 29.7025ZM82.5279 20.6236C82.6446 18.5023 84.1821 16.6631 86.5467 16.6631C88.8043 16.6631 90.2834 18.3369 90.2931 20.6236H82.5279ZM99.282 20.5263C99.282 18.1422 100.742 16.7799 102.766 16.7799C104.741 16.7799 105.938 18.0741 105.938 20.2441V29.4009H108.847V19.8938C108.847 16.1961 106.814 14.2596 103.758 14.2596C101.51 14.2596 100.041 15.3008 99.3501 16.887H99.1653V14.4542H96.3725V29.4009H99.282V20.5263ZM119.727 14.4542H116.661V10.8733H113.752V14.4542H111.562V16.7896H113.752V25.6156C113.742 28.3305 115.815 29.6442 118.111 29.5955C119.036 29.5858 119.659 29.4106 119.999 29.2841L119.474 26.8806C119.279 26.9195 118.919 27.0071 118.452 27.0071C117.508 27.0071 116.661 26.6957 116.661 25.0122V16.7896H119.727V14.4542Z" fill="#3861FB"/>
<defs>
<clipPath id="clip0">
<rect width="24.5385" height="30" fill="white"/>
</clipPath>
</defs>
</svg>
